<?xml version="1.0" encoding="utf-8"?>
<!-- Generator: Adobe Illustrator 17.0.0, SVG Export Plug-In . SVG Version: 6.00 Build 0)  -->
<!DOCTYPE svg PUBLIC "-//W3C//DTD SVG 1.1//EN" "http://www.w3.org/Graphics/SVG/1.1/DTD/svg11.dtd">
<svg version="1.1" id="Layer_1" xmlns="http://www.w3.org/2000/svg" xmlns:xlink="http://www.w3.org/1999/xlink" x="0px" y="0px"
	 width="199px" height="35px" viewBox="0 0 199 35" enable-background="new 0 0 199 35" xml:space="preserve">
<g>
	<path fill="#605020" d="M36.449,11.967h5.094c1.296,0,2.318,0.358,2.969,1.008c0.503,0.503,0.763,1.118,0.763,1.882v0.03
		c0,1.362-0.779,2.093-1.623,2.533c1.331,0.452,2.255,1.216,2.255,2.756v0.033c0,2.029-1.671,3.115-4.2,3.115h-5.258
		C36.449,23.323,36.449,11.967,36.449,11.967z M41.138,16.755c1.282,0,2.139-0.505,2.139-1.545v-0.03
		c0-0.89-0.712-1.443-1.994-1.443H38.41v3.018H41.138z M41.72,21.557c1.363,0,2.192-0.537,2.192-1.559v-0.034
		c0-0.956-0.764-1.52-2.337-1.52H38.41v3.113H41.72z"/>
	<path fill="#605020" d="M47.516,20.21v-5.45h1.965v4.866c0,1.329,0.665,2.092,1.832,2.092c1.138,0,1.932-0.793,1.932-2.129v-4.83
		h1.962v8.565h-1.962v-1.329c-0.551,0.811-1.346,1.507-2.676,1.507C48.637,23.503,47.516,22.207,47.516,20.21"/>
	<path fill="#605020" d="M56.881,19.077v-0.035c0-2.448,1.736-4.46,4.187-4.46c2.725,0,4.103,2.141,4.103,4.608
		c0,0.177-0.014,0.355-0.029,0.551h-6.295c0.211,1.395,1.199,2.174,2.464,2.174c0.958,0,1.639-0.356,2.321-1.023l1.152,1.023
		c-0.811,0.973-1.932,1.605-3.505,1.605C58.795,23.519,56.881,21.718,56.881,19.077 M63.224,18.445
		c-0.127-1.271-0.875-2.259-2.172-2.259c-1.198,0-2.044,0.922-2.221,2.259H63.224z"/>
	<path fill="#605020" d="M66.833,14.76h1.962v1.329c0.551-0.81,1.348-1.507,2.676-1.507c1.93,0,3.052,1.299,3.052,3.292v5.451
		h-1.966v-4.864c0-1.332-0.666-2.094-1.832-2.094c-1.136,0-1.932,0.792-1.932,2.125v4.832h-1.962L66.833,14.76L66.833,14.76z"/>
	<path fill="#605020" d="M76.1,19.091v-0.035c0-2.449,1.947-4.475,4.575-4.475c2.629,0,4.558,1.996,4.558,4.444v0.03
		c0,2.435-1.944,4.464-4.589,4.464C78.03,23.519,76.1,21.527,76.1,19.091 M83.27,19.091v-0.035c0-1.507-1.087-2.756-2.627-2.756
		c-1.575,0-2.58,1.231-2.58,2.725v0.03c0,1.496,1.087,2.76,2.61,2.76C82.265,21.816,83.27,20.567,83.27,19.091"/>
	<path fill="#605020" d="M86.212,22.207l0.875-1.331c0.925,0.699,1.933,1.055,2.808,1.055c0.842,0,1.331-0.355,1.331-0.926v-0.03
		c0-0.666-0.909-0.895-1.913-1.203c-1.266-0.357-2.676-0.872-2.676-2.515v-0.03c0-1.623,1.345-2.612,3.05-2.612
		c1.069,0,2.238,0.373,3.147,0.974l-0.779,1.395c-0.827-0.504-1.702-0.811-2.417-0.811c-0.761,0-1.201,0.358-1.201,0.862v0.027
		c0,0.618,0.923,0.877,1.931,1.206c1.251,0.387,2.659,0.956,2.659,2.496v0.034c0,1.8-1.395,2.693-3.177,2.693
		C88.628,23.487,87.28,23.05,86.212,22.207"/>
	<path fill="#605020" d="M103.493,11.887h1.853l4.996,11.436h-2.109l-1.152-2.741h-5.37l-1.169,2.741h-2.045L103.493,11.887z
		 M106.35,18.813l-1.962-4.542l-1.947,4.542H106.35z"/>
	<path fill="#605020" d="M111.776,11.579h2.109v1.869h-2.109V11.579z M111.855,14.76h1.965v8.565h-1.965V14.76z"/>
	<path fill="#605020" d="M116.059,14.76h1.964v1.931c0.534-1.282,1.525-2.157,3.033-2.094v2.074h-0.113
		c-1.72,0-2.92,1.125-2.92,3.394v3.26h-1.964V14.76z"/>
	<path fill="#605020" d="M121.678,19.077v-0.035c0-2.448,1.735-4.46,4.184-4.46c2.728,0,4.103,2.141,4.103,4.608
		c0,0.177-0.014,0.355-0.032,0.551h-6.294c0.21,1.395,1.199,2.174,2.465,2.174c0.957,0,1.638-0.356,2.319-1.023l1.153,1.023
		c-0.81,0.973-1.934,1.605-3.506,1.605C123.591,23.519,121.678,21.718,121.678,19.077 M128.018,18.445
		c-0.127-1.271-0.876-2.259-2.171-2.259c-1.202,0-2.043,0.922-2.224,2.259H128.018z"/>
	<path fill="#605020" d="M130.93,22.207l0.874-1.331c0.925,0.699,1.931,1.055,2.807,1.055c0.844,0,1.329-0.355,1.329-0.926v-0.03
		c0-0.666-0.908-0.895-1.91-1.203c-1.267-0.357-2.68-0.872-2.68-2.515v-0.03c0-1.623,1.349-2.612,3.051-2.612
		c1.071,0,2.239,0.373,3.147,0.974l-0.779,1.395c-0.828-0.504-1.703-0.811-2.415-0.811c-0.764,0-1.202,0.358-1.202,0.862v0.027
		c0,0.618,0.924,0.877,1.931,1.206c1.247,0.387,2.661,0.956,2.661,2.496v0.034c0,1.8-1.397,2.693-3.18,2.693
		C133.346,23.487,131.998,23.05,130.93,22.207"/>
	<path fill="#605020" d="M143.686,17.678v-0.033c0-3.228,2.415-5.871,5.857-5.871c2.092,0,3.359,0.729,4.445,1.766l-1.28,1.475
		c-0.909-0.841-1.884-1.408-3.183-1.408c-2.175,0-3.747,1.783-3.747,4.009v0.029c0,2.221,1.573,4.039,3.747,4.039
		c1.395,0,2.289-0.566,3.261-1.476l1.282,1.297c-1.188,1.233-2.483,2.013-4.607,2.013C146.149,23.519,143.686,20.939,143.686,17.678
		"/>
	<path fill="#605020" d="M155.648,11.579h2.108v1.869h-2.108V11.579z M155.728,14.76h1.962v8.565h-1.962V14.76z"/>
	<path fill="#605020" d="M159.836,20.21v-5.45h1.961v4.866c0,1.329,0.667,2.092,1.835,2.092c1.135,0,1.93-0.793,1.93-2.129v-4.83
		h1.966v8.565h-1.966v-1.329c-0.551,0.811-1.345,1.507-2.676,1.507C160.955,23.503,159.836,22.207,159.836,20.21"/>
	<path fill="#605020" d="M169.232,19.056v-0.03c0-2.84,1.931-4.444,3.975-4.444c1.413,0,2.302,0.715,2.919,1.507V11.48h1.962v11.843
		h-1.962v-1.428c-0.631,0.891-1.525,1.607-2.919,1.607C171.196,23.503,169.232,21.897,169.232,19.056 M176.159,19.056v-0.03
		c0-1.654-1.168-2.742-2.483-2.742c-1.345,0-2.468,1.038-2.468,2.742v0.03c0,1.657,1.14,2.744,2.468,2.744
		C174.992,21.8,176.159,20.696,176.159,19.056"/>
	<path fill="#605020" d="M185.462,23.325v-1.056c-0.586,0.698-1.477,1.234-2.774,1.234c-1.623,0-3.052-0.924-3.052-2.641v-0.034
		c0-1.899,1.478-2.807,3.473-2.807c1.038,0,1.702,0.147,2.367,0.356v-0.16c0-1.184-0.744-1.834-2.108-1.834
		c-0.957,0-1.673,0.212-2.449,0.534l-0.536-1.573c0.942-0.421,1.867-0.714,3.261-0.714c2.532,0,3.765,1.33,3.765,3.618v5.076
		L185.462,23.325L185.462,23.325z M185.509,19.739c-0.503-0.196-1.202-0.342-1.964-0.342c-1.232,0-1.961,0.505-1.961,1.332v0.03
		c0,0.814,0.729,1.267,1.651,1.267c1.301,0,2.274-0.73,2.274-1.804V19.739z"/>
	<path fill="#605020" d="M188.986,19.056v-0.03c0-2.84,1.931-4.444,3.974-4.444c1.412,0,2.305,0.715,2.92,1.507V11.48h1.962v11.843
		h-1.962v-1.428c-0.634,0.891-1.525,1.607-2.92,1.607C190.949,23.503,188.986,21.897,188.986,19.056 M195.913,19.056v-0.03
		c0-1.654-1.169-2.742-2.483-2.742c-1.349,0-2.465,1.038-2.465,2.742v0.03c0,1.657,1.132,2.744,2.465,2.744
		C194.744,21.8,195.913,20.696,195.913,19.056"/>
	<path fill="#605020" d="M14.404,5.659c-0.09,0-0.166,0.074-0.166,0.163c0,0.092,0.075,0.167,0.166,0.167
		c0.092,0,0.163-0.075,0.163-0.167C14.567,5.732,14.496,5.659,14.404,5.659"/>
	<path fill="#605020" d="M22.811,8.231l-0.027-0.003c-0.866-0.036-1.693-0.348-2.493-0.651c-0.324-0.123-0.66-0.25-0.993-0.352
		c-0.656-0.21-1.241-0.324-1.789-0.35c-0.146-0.008-0.278-0.01-0.418-0.01c-0.37,0-0.889,0.034-1.212,0.349
		c-0.093-0.408-0.204-0.866-0.373-1.3c-0.163-0.412-0.405-0.902-0.846-1.035c-0.071-0.023-0.147-0.029-0.215-0.029
		c-0.438,0-0.768,0.389-0.93,0.621l-0.072,0.105c-0.189,0.275-0.285,0.411-0.258,0.541c0.03,0.128,0.187,0.226,0.543,0.431
		c0.151,0.086,0.18,0.31,0.201,0.477l0.002,0.016c0.033,0.249,0.05,0.489,0.047,0.719c-0.504-0.519-1.274-0.723-1.972-0.853
		c-0.184-0.036-0.379-0.055-0.578-0.055c-0.802,0-1.584,0.302-2.105,0.525C9.032,7.503,8.738,7.641,8.456,7.781
		C7.908,8.044,7.341,8.312,6.755,8.494c-0.18,0.055-0.372,0.102-0.607,0.14H6.14C6.139,8.637,6.132,8.637,6.125,8.637L6.109,8.639
		C6.018,8.657,5.867,8.705,5.838,8.844C5.808,8.98,5.824,9.071,6.012,9.216c0.429,0.243,0.951,0.361,1.593,0.361
		c0.133,0,0.267-0.005,0.415-0.013C8.213,9.551,8.408,9.526,8.612,9.5c0.296-0.04,0.597-0.077,0.889-0.077
		c0.201,0,0.376,0.018,0.536,0.054c0.476,0.111,0.762,0.583,1.009,1.002c0.063,0.106,0.121,0.202,0.182,0.294l0.005,0.006
		c0.117,0.174,0.307,0.468,0.296,0.686c-0.012,0.211-0.306,0.387-0.517,0.515c-0.055,0.036-0.112,0.069-0.151,0.098
		c-0.069,0.044-0.148,0.097-0.232,0.152c-0.478,0.303-1.132,0.721-1.056,1.282c0.034,0.277,0.265,0.498,0.546,0.532
		c0.023,0.002,0.05,0.002,0.076,0.002c0.201,0,0.379-0.09,0.552-0.181c0.074-0.036,0.149-0.075,0.219-0.106
		c0.229-0.091,0.46-0.138,0.686-0.138c0.385,0,0.757,0.128,1.1,0.387c0.114,0.085,0.214,0.188,0.314,0.287
		c0.106,0.106,0.216,0.218,0.341,0.307c0.1,0.072,0.287,0.146,0.445,0.146c0.155,0,0.26-0.078,0.288-0.218
		c0.057-0.278,0.056-0.568,0.056-0.852c-0.005-0.225-0.005-0.457,0.022-0.68c0.016-0.135,0.054-0.412,0.23-0.498
		c0.058-0.027,0.125-0.041,0.205-0.041c0.091,0,0.186,0.016,0.275,0.029c0.125,0.022,0.26,0.041,0.365,0.028
		c0.505-0.071,0.926-0.485,1.126-1.108c0.096-0.209,0.205-0.303,0.421-0.354c0.253-0.062,0.412-0.267,0.566-0.471
		c0.039-0.051,0.078-0.099,0.117-0.147c0.316-0.378,0.705-0.545,1.251-0.545c0.1,0,0.208,0.005,0.328,0.016
		c0.111,0.012,0.223,0.022,0.337,0.036c0.291,0.034,0.569,0.068,0.853,0.068c0.306,0,0.579-0.041,0.831-0.124
		c0.657-0.218,1.233-0.645,1.762-1.072l0.078-0.062c0.148-0.124,0.182-0.202,0.144-0.344C23.068,8.271,22.882,8.237,22.811,8.231
		 M11.507,10.181c-0.127-0.217-0.263-0.439-0.426-0.635c-0.383-0.466-0.888-0.67-1.646-0.67c-0.316,0-0.649,0.034-0.972,0.069
		c-0.32,0.035-0.65,0.068-0.96,0.068c-0.163,0-0.31-0.01-0.45-0.027C7.6,8.803,8.126,8.554,8.63,8.308
		c0.546-0.264,1.108-0.536,1.699-0.715c0.363-0.111,0.744-0.17,1.129-0.17c0.705,0,1.356,0.186,1.885,0.537
		c0.44,0.292,0.571,0.6,0.421,1.034c-0.158,0.457-0.433,0.912-0.817,1.346c-0.026,0.027-0.051,0.06-0.085,0.098
		c-0.167,0.198-0.446,0.531-0.681,0.531c-0.071,0-0.135-0.033-0.19-0.092C11.799,10.667,11.651,10.42,11.507,10.181 M15.942,10.825
		c-0.053,0.383-0.204,0.712-0.438,0.924c-0.209,0.191-0.435,0.229-0.739,0.229c-0.048,0-0.103-0.003-0.153-0.003
		c-0.055,0-0.109,0-0.169,0c-0.191,0-0.352,0.064-0.478,0.19c-0.363,0.37-0.356,1.177-0.351,1.713v0.17l-0.036-0.033
		c-0.461-0.425-0.891-0.831-1.541-0.93c-0.1-0.019-0.205-0.026-0.314-0.026c-0.195,0-0.401,0.027-0.615,0.078
		c-0.184,0.045-0.341,0.114-0.505,0.191c-0.068,0.029-0.131,0.056-0.196,0.085c-0.078,0.034-0.182,0.064-0.245,0.064
		c-0.016,0-0.033,0-0.041-0.006c-0.002-0.008-0.002-0.022,0.002-0.037c0.064-0.218,0.3-0.373,0.488-0.503l0.051-0.033
		c0.483-0.327,0.935-0.651,1.381-0.999c0.817-0.636,1.716-1.427,2.161-2.505c0.254-0.604,0.363-1.299,0.32-2.009l-0.004-0.041
		c-0.022-0.294-0.037-0.597-0.159-0.865c-0.096-0.223-0.271-0.327-0.452-0.434c-0.036-0.021-0.069-0.039-0.1-0.058
		c0.084-0.162,0.326-0.586,0.601-0.586c0.109,0,0.209,0.065,0.307,0.197c0.324,0.446,0.471,0.975,0.603,1.448
		c0.022,0.082,0.047,0.17,0.071,0.264C15.652,8.221,16.083,9.744,15.942,10.825 M21.525,9.099c-0.446,0.252-0.842,0.372-1.22,0.372
		h-0.036c-0.246-0.007-0.494-0.037-0.734-0.072c-0.21-0.026-0.424-0.055-0.636-0.065c-0.522-0.022-0.925,0.06-1.251,0.253
		c-0.226,0.138-0.384,0.328-0.537,0.519c-0.107,0.132-0.225,0.272-0.363,0.389c-0.041,0.03-0.096,0.071-0.146,0.071h-0.005
		c-0.058-0.002-0.064-0.04-0.058-0.128c0-0.022,0.002-0.041,0-0.057c-0.009-0.196-0.041-0.391-0.064-0.579l-0.014-0.107
		c-0.046-0.33-0.096-0.678-0.176-1.022c-0.014-0.058-0.036-0.127-0.061-0.205c-0.093-0.3-0.21-0.679,0.022-0.868
		c0.144-0.117,0.384-0.139,0.545-0.155c0,0,0.184-0.015,0.383-0.016h0.072c0.222,0,0.447,0.013,0.67,0.041
		c0.415,0.057,0.849,0.166,1.377,0.341c0.282,0.093,0.565,0.2,0.844,0.301c0.636,0.237,1.294,0.484,1.982,0.601
		C21.9,8.87,21.71,8.998,21.525,9.099"/>
	<path fill="#605020" d="M28.613,14.177c-0.188-1.211-0.491-2.406-0.895-3.562c-0.393-1.105-0.884-2.178-1.474-3.194
		c-0.46-0.788-0.977-1.541-1.555-2.248c-0.739-0.904-1.577-1.727-2.499-2.441c-0.897-0.695-1.881-1.282-2.921-1.73
		c-1.042-0.446-2.142-0.751-3.263-0.898c-1.139-0.149-2.305-0.137-3.442,0.04C11.446,0.32,10.358,0.653,9.33,1.126
		C8.295,1.6,7.323,2.209,6.438,2.925c-0.904,0.73-1.721,1.57-2.438,2.483C3.29,6.303,2.675,7.271,2.156,8.292
		c-0.54,1.057-0.979,2.165-1.316,3.305c-0.351,1.19-0.594,2.413-0.723,3.647c-0.132,1.283-0.153,2.578-0.055,3.863
		c0.095,1.247,0.295,2.487,0.614,3.695c0.303,1.157,0.709,2.291,1.219,3.373c0.492,1.038,1.077,2.036,1.757,2.96
		c0.763,1.042,2.709,2.882,2.72,2.882C8.664,33.894,11.442,35,14.438,35h0.004c1.14,0,2.281-0.16,3.375-0.482
		c1.09-0.316,2.126-0.783,3.092-1.37c0.982-0.596,1.888-1.317,2.703-2.129c0.812-0.812,1.537-1.713,2.164-2.68
		c0.636-0.973,1.173-2.01,1.611-3.087c0.457-1.121,0.806-2.287,1.052-3.476c0.259-1.238,0.399-2.501,0.431-3.77
		C28.897,16.725,28.815,15.441,28.613,14.177 M3.055,22.541H2.687l0.33-1.251c0.032-0.091,0.05-0.088,0.062-0.05
		C3.069,21.691,3.062,22.128,3.055,22.541 M3.235,19.133l-0.739-0.34c-0.043-0.019-0.037-0.034,0.005-0.034h1.588
		c0.046,0,0.048,0.016,0.007,0.034l-0.712,0.341C3.345,19.152,3.277,19.152,3.235,19.133 M2.308,18.434l0.826-0.588
		c-0.006,0.194-0.007,0.391-0.009,0.588H2.308z M2.586,16.452h1.413c0.039,0,0.043,0.014,0.006,0.03l-0.631,0.299
		c-0.039,0.019-0.099,0.019-0.138,0.003l-0.658-0.306C2.54,16.462,2.543,16.452,2.586,16.452 M2.409,16.16l0.758-0.499
		c0,0.156-0.005,0.327-0.009,0.499H2.409z M3.436,15.67l0.751,0.489H3.443C3.44,15.995,3.438,15.832,3.436,15.67 M3.47,17.849
		l0.834,0.585H3.479C3.474,18.238,3.471,18.039,3.47,17.849 M3.548,22.541c-0.007-0.412-0.015-0.848-0.023-1.297
		c0.005-0.03,0.029-0.054,0.055,0.035l0.334,1.262C3.913,22.541,3.548,22.541,3.548,22.541z M14.438,33.736
		c-2.202,0-4.277-0.662-6.109-1.849c1.418-0.011,2.827,0.18,4.227,0.387c1.406,0.208,2.812,0.443,4.227,0.586
		c0.543,0.055,1.09,0.095,1.636,0.12C17.161,33.472,15.823,33.736,14.438,33.736 M20.893,31.655
		c-1.394,0.146-2.802,0.082-4.195-0.071c-1.391-0.151-2.772-0.387-4.156-0.587c-1.43-0.209-2.862-0.387-4.306-0.376
		c-0.494,0.006-0.98,0.03-1.465,0.078c-0.457-0.407-0.895-0.848-1.31-1.322c1.447-0.212,2.918-0.205,4.375-0.105
		c1.463,0.11,2.914,0.323,4.366,0.537c0.728,0.11,1.456,0.218,2.184,0.313c0.362,0.05,1.804,0.159,2.16,0.159
		c1.454,0,2.917-0.107,4.355-0.344C22.274,30.585,21.604,31.158,20.893,31.655 M24.205,28.387c-1.397,0.338-2.827,0.519-4.263,0.593
		c-0.716,0.036-1.436,0.057-2.154,0.02c-0.725-0.033-1.444-0.151-2.162-0.254c-1.443-0.207-2.889-0.438-4.341-0.604
		c-1.447-0.159-2.903-0.246-4.361-0.173c-0.789,0.042-1.581,0.127-2.36,0.279c-0.264-0.37-0.517-0.756-0.757-1.16
		c1.283-0.265,2.584-0.435,3.894-0.482c1.329-0.048,2.652,0.043,3.97,0.215c1.271,0.166,2.533,0.4,3.803,0.572
		c1.164,0.156,2.333,0.259,3.505,0.259h0.008c1.217,0,2.437-0.11,3.64-0.302c0.875-0.144,1.749-0.326,2.606-0.547
		C24.916,27.357,24.574,27.886,24.205,28.387 M4.827,23.924c-0.61-0.404-0.694-1.058-0.657-1.184l1.881-4.433
		c0.043-0.081,0.06-0.055,0.048,0L4.827,23.924z M6.073,19.739c-0.029,1.986-0.056,3.837-0.064,4.723
		c-0.345-0.099-0.684-0.205-0.977-0.414l0.996-4.401C6.054,19.609,6.068,19.672,6.073,19.739 M5.571,15.848h1.415
		c0.037,0,0.043,0.016,0.007,0.033L6.36,16.184c-0.036,0.017-0.098,0.017-0.132,0l-0.66-0.303
		C5.528,15.866,5.532,15.848,5.571,15.848 M5.397,15.565l0.744-0.494c-0.002,0.16-0.003,0.324-0.006,0.494H5.397z M6.439,15.08
		l0.737,0.484h-0.73C6.442,15.397,6.442,15.235,6.439,15.08 M7.95,21.59c-0.025,0.952-0.048,1.903-0.064,2.638
		c-0.005,0.006-0.014,0.011-0.022,0.015L7.232,21.5l0.337-0.8L7.95,21.59z M7.698,20.395l0.251-0.594
		c0.027-0.035,0.041-0.026,0.047,0.005c-0.008,0.383-0.02,0.792-0.029,1.213L7.698,20.395z M7.072,21.872l0.608,2.496
		c-0.212,0.089-0.477,0.138-0.708,0.169c-0.085,0.012-0.167,0.016-0.25,0.022c-0.049,0.005-0.104,0.012-0.152,0.007
		c-0.002-0.335-0.012-0.842-0.016-1.463L7.072,21.872z M6.547,22.514c-0.013-0.826-0.027-1.79-0.042-2.79
		c0.008-0.082,0.027-0.139,0.069-0.019l0.408,1.773L6.547,22.514z M7.141,21.107l-0.646-2.795c-0.006-0.055,0.007-0.085,0.049-0.005
		l0.897,2.09L7.141,21.107z M8.377,21.977v-0.406c-0.019-0.728-0.037-1.066-0.054-1.741c0.006-0.048,0.022-0.077,0.055-0.023
		l1.125,2.805c-0.184,0.363-0.216,0.492-0.502,0.791L8.377,21.977z M8.819,23.584c-0.112,0.127-0.261,0.251-0.39,0.355
		c-0.012-0.383-0.026-0.879-0.036-1.324L8.819,23.584z M9.96,22.51l1.286-2.757c-0.026,0.789-0.048,1.924-0.072,2.757h-0.525
		C10.455,22.51,10.15,22.523,9.96,22.51 M19.155,18.976h1.855c0.049,0,0.057,0.016,0.023,0.034
		c-0.006,0.006-0.846,0.401-0.846,0.401c-0.055,0.03-0.131,0.023-0.173,0.002l-0.87-0.397C19.095,18.991,19.1,18.976,19.155,18.976
		 M18.941,18.606l0.972-0.693c-0.005,0.203-0.009,0.667-0.009,0.693H18.941z M19.291,15.871c0,0,0.02-0.006,0.032-0.006h1.553
		c0.014,0,0.022,0.001,0.029,0.006h0.002h-0.002c0.011,0.006,0.005,0.016-0.023,0.027l-0.695,0.324
		c-0.037,0.02-0.104,0.02-0.146,0.004l-0.721-0.328C19.294,15.887,19.284,15.878,19.291,15.871 M19.126,15.54l0.828-0.596
		c-0.003,0.193-0.007,0.389-0.008,0.596H19.126z M20.243,14.956l0.835,0.585h-0.825C20.25,15.341,20.246,15.144,20.243,14.956
		 M20.284,17.913l0.967,0.693h-0.957C20.293,18.379,20.289,18.14,20.284,17.913 M23.093,17.168h1.588
		c0.042,0,0.048,0.014,0.007,0.034l-0.716,0.338c-0.041,0.02-0.104,0.02-0.145,0l-0.742-0.338
		C23.047,17.182,23.048,17.168,23.093,17.168 M22.896,16.844l0.832-0.59c-0.005,0.198-0.007,0.39-0.009,0.59H22.896z M24.054,16.253
		l0.842,0.59h-0.834C24.062,16.645,24.058,16.452,24.054,16.253 M23.688,19.667c-0.027,1.923-0.06,3.988-0.079,5.441
		c-0.467,0.158-0.873,0.202-1.23,0.168l0.79-3.522l0.464-2.074C23.656,19.629,23.679,19.601,23.688,19.667 M23.579,18.842
		l-1.377,6.109l-0.595-1.64l0.005-0.012l1.882-4.517C23.546,18.689,23.601,18.629,23.579,18.842 M22.057,25.226
		c-0.431-0.095-0.772-0.305-1.037-0.534l0.45-1.07L22.057,25.226z M20.85,24.524c-0.267-0.282-0.418-0.564-0.478-0.68
		c-0.012-0.923-0.032-2.307-0.055-3.785l1.045,3.225L20.85,24.524z M18.579,23.78h-2.273l3.386-3.822L18.579,23.78z M19.876,20.057
		c-0.013,0.862-0.042,3.614-0.042,3.723h-1.015L19.876,20.057z M24.099,19.665c-0.002-0.062,0.027-0.042,0.051,0.015l0.949,4.097
		c-0.207,0.483-0.628,0.839-0.931,1.045C24.16,24.077,24.101,19.682,24.099,19.665 M25.343,23.755l-1.162-4.865
		c-0.034-0.295,0.041-0.19,0.098-0.082l2.121,4.947H25.343L25.343,23.755z M27.233,21.383c-0.155,0.776-0.358,1.541-0.607,2.288
		l-2.542-6.028l1.115-0.498c0.118-0.055,0.118-0.222,0.003-0.282c0,0-1.094-0.776-1.155-0.821l-0.027-1.849
		c0.137-0.016,0.266-0.076,0.399-0.099c0.148-0.023,0.287,0.002,0.433,0.027c0.132,0.022,0.264,0.034,0.393-0.004
		c0.124-0.035,0.233-0.103,0.331-0.183c-0.289-0.008-0.525-0.193-0.782-0.307c-0.127-0.062-0.267-0.093-0.408-0.111
		c-0.139-0.014-0.305-0.023-0.438,0.018c-0.013-0.109-0.027-0.218-0.048-0.341h-0.057c-0.086,0.509-0.082,1.062-0.089,1.573
		c-0.005,0.359-0.007,0.721-0.013,1.079c0,0.068,0,0.131-0.002,0.195l-1.148,0.82c-0.111,0.058-0.117,0.225,0,0.284l0,0l1.084,0.498
		l-2.189,5.324L20.36,19.54l1.25-0.585c0.128-0.066,0.134-0.26,0.005-0.328c0,0-1.176-0.825-1.329-0.937
		c-0.009-0.432-0.016-0.901-0.019-1.307l1.139-0.54l0,0c0.112-0.053,0.12-0.223,0.005-0.281c0,0-1.019-0.728-1.169-0.833
		c-0.012-0.841-0.02-1.679-0.029-2.514c0.062,0,0.127-0.023,0.19-0.041c0.075-0.022,0.146-0.044,0.218-0.055
		c0.146-0.029,0.286-0.005,0.432,0.02c0.137,0.024,0.279,0.041,0.414,0c0.125-0.037,0.232-0.103,0.331-0.184
		c-0.291-0.004-0.526-0.19-0.779-0.305c-0.131-0.062-0.268-0.092-0.411-0.11c-0.139-0.018-0.301-0.026-0.434,0.016
		c-0.013-0.111-0.027-0.224-0.049-0.344h-0.056v0.002c-0.078,0.466-0.084,0.933-0.089,1.401c-0.003,0.427-0.006,0.853-0.013,1.28
		c-0.005,0.279-0.007,0.557-0.013,0.833l-1.157,0.828c-0.117,0.06-0.117,0.229,0,0.286l1.135,0.536h0.002
		c-0.003,0.407-0.009,0.887-0.016,1.311l-1.329,0.933c-0.133,0.068-0.133,0.26,0,0.331l1.223,0.582l-3.821,4.24
		c-0.072,0-0.548,0.005-0.617,0.092c-0.1,0.078-0.104,0.201-0.062,0.305c0.058,0.137,0.176,0.232,0.301,0.306
		c0.063,0.04,0.134,0.071,0.205,0.097c0.007,0.006,0.016,0.015,0.022,0.019c0,0,0.343,1.147,1.817,1.679h-0.001
		c0,0,0.037,0.012,0.027,0.044c0,0.007-0.005,0.009-0.009,0.014c-0.008,0.005-0.022,0.008-0.037,0.011
		c-1.406-0.088-2.791-0.32-4.18-0.537c-0.531-0.086-1.061-0.166-1.593-0.236c-0.361-0.046-0.719-0.089-1.076-0.154
		c-0.036-0.009-0.055-0.022-0.058-0.037v-0.001c-0.003,0-0.003-0.005-0.003-0.005v-0.009c0-0.005,0.003-0.005,0.003-0.005
		c0-0.007,0.009-0.016,0.016-0.024c0.007-0.006,0.012-0.007,0.012-0.007c1.955-0.583,2.366-2.009,2.366-2.009
		c0.027-0.012,0.051-0.027,0.075-0.037c0.053-0.024,0.107-0.05,0.155-0.079c0.125-0.071,0.245-0.167,0.3-0.307
		c0.044-0.106,0.036-0.223-0.061-0.303c-0.072-0.096-0.627-0.093-0.627-0.093l-0.003,0.006h-0.095
		c-0.004-0.306-0.012-1.096-0.028-1.608c0.058,0.026,0.127,0.002,0.181-0.012c0.075-0.021,0.146-0.044,0.218-0.062
		c0.152-0.034,0.299-0.026,0.45,0c0.146,0.026,0.292,0.051,0.438,0.014c0.131-0.031,0.25-0.103,0.349-0.188
		c-0.295-0.008-0.534-0.202-0.796-0.315c-0.139-0.058-0.286-0.092-0.433-0.106c-0.139-0.011-0.313-0.023-0.44,0.037
		c-0.011-0.12-0.02-0.229-0.034-0.303h-0.055c-0.075,0.436-0.078,1.953-0.082,2.541l-0.98,0.002c-0.03-1.072-0.078-2.5-0.103-3.414
		l0.849-1.822c0.116,0.051,0.253,0.059,0.37,0.104c0.133,0.046,0.242,0.124,0.349,0.216c0.104,0.083,0.208,0.167,0.334,0.208
		c0.14,0.046,0.286,0.039,0.425,0.016c-0.24-0.146-0.358-0.414-0.512-0.635c-0.082-0.116-0.183-0.211-0.295-0.296
		c-0.119-0.088-0.257-0.179-0.4-0.215c0.033-0.097,0.076-0.231,0.081-0.295c-0.005-0.012,0-0.029-0.026-0.044
		c-0.006,0-0.009-0.002-0.015-0.002c-0.037,0.002-0.049,0.03-0.074,0.061c-0.076,0.092-0.177,0.274-0.194,0.306l-0.908,1.946
		c-0.009-0.306-0.016-0.614-0.02-0.921c0-0.387-0.019-0.77-0.083-1.153h-0.054c-0.082,0.464-0.083,0.93-0.089,1.401
		c-0.005,0.42-0.019,0.841-0.03,1.265L9.7,22.471l-1.399-3.432c-0.012-0.422-0.023-0.847-0.027-1.273
		c-0.009-0.482-0.009-0.963-0.089-1.441H8.133c-0.083,0.468-0.083,0.944-0.09,1.416c-0.006,0.433-0.016,0.865-0.026,1.295
		l-0.449,1.059l-1.091-2.549C6.47,17.12,6.465,16.705,6.458,16.3l0.995-0.468c0.103-0.051,0.103-0.198,0.002-0.253
		c0,0-0.842-0.604-1.02-0.73c-0.013-0.879-0.02-1.754-0.033-2.631c0.065,0,0.127-0.023,0.189-0.041
		c0.071-0.022,0.142-0.044,0.219-0.055c0.148-0.029,0.286-0.005,0.429,0.02c0.14,0.024,0.279,0.041,0.415,0
		c0.124-0.037,0.232-0.103,0.333-0.184c-0.282-0.004-0.519-0.181-0.762-0.296c-0.131-0.062-0.268-0.099-0.408-0.117
		c-0.142-0.019-0.312-0.029-0.453,0.015c-0.01-0.118-0.027-0.235-0.047-0.348H6.262c-0.093,0.564-0.085,1.128-0.089,1.695
		c-0.005,0.547-0.016,1.091-0.026,1.639c0,0.105,0,0.205-0.005,0.303l-1.016,0.728c-0.103,0.053-0.104,0.201,0,0.254L6.122,16.3
		c-0.005,0.455-0.016,1.196-0.016,1.246L4.076,22.31L3.78,21.218h0.261v-0.005h0.131c0.057,0,0.118-0.02,0.17-0.037
		c0.039-0.013,0.127-0.042,0.127-0.097c0-0.05-0.079-0.082-0.117-0.095c-0.055-0.019-0.118-0.041-0.182-0.041H3.709l-0.201-0.755
		c-0.003-0.308-0.008-0.621-0.015-0.928l1.119-0.523c0.114-0.06,0.117-0.223,0.007-0.282c0,0-1.076-0.763-1.153-0.813
		c-0.002-0.222-0.007-0.534-0.012-0.735l1.009-0.478c0.1-0.05,0.105-0.197,0.004-0.251c0,0-0.897-0.639-1.035-0.742
		c-0.012-0.732-0.016-1.224-0.02-1.279c0.118,0.012,0.244-0.055,0.352-0.077c0.131-0.023,0.253-0.012,0.379,0.008
		c0.121,0.027,0.245,0.041,0.369,0.015c0.117-0.033,0.222-0.093,0.314-0.169c-0.257-0.008-0.468-0.168-0.693-0.272
		c-0.114-0.054-0.24-0.085-0.369-0.096c-0.124-0.012-0.271-0.026-0.39,0.023c-0.012-0.1-0.026-0.196-0.048-0.306H3.275
		c-0.079,0.401-0.082,0.809-0.086,1.217c-0.005,0.348-0.009,0.588-0.016,0.936l-1.031,0.74c-0.106,0.054-0.106,0.204,0,0.253
		l1.007,0.478c-0.002,0.205-0.005,0.515-0.009,0.735l-1.132,0.81c-0.118,0.055-0.118,0.224-0.005,0.281l1.11,0.527
		C3.107,19.569,3.1,19.876,3.093,20.18l-0.2,0.762H2.427c-0.056,0-0.118,0.019-0.169,0.036c-0.04,0.015-0.131,0.048-0.131,0.1
		c0,0.05,0.079,0.079,0.117,0.092c0.058,0.021,0.121,0.041,0.181,0.041h0.131c0,0,0,0.005,0.002,0.005H2.82l-0.348,1.324H1.913
		c-0.342-1.276-0.546-2.589-0.618-3.905c-0.075-1.321-0.019-2.648,0.167-3.954c0.169-1.216,0.459-2.416,0.86-3.572
		c0.387-1.104,0.875-2.172,1.472-3.172c0.313-0.527,0.653-1.04,1.031-1.528c1.517,0.509,3.48,0.042,3.48,0.042
		c1.77-0.32,2.871-0.268,3.512-0.169l0.344,0.06c0.036-0.216,0.062-0.372,0.128-0.575c-1.853-0.588-3.936-0.302-3.936-0.302
		C7.091,5.576,6.326,5.32,5.929,5.101c0,0,0.796-0.848,1.447-1.315C7.945,4.198,8.665,4.401,9.34,4.519
		c0.446,0.081,0.898,0.117,1.341,0.216c0.448,0.102,0.895,0.236,1.329,0.387c0.153,0.054,0.358,0.152,0.448,0.195
		c0.082-0.181,0.197-0.345,0.31-0.509l-0.287-0.181C11.91,4.3,11.372,4.13,10.768,3.95c-0.405-0.125-0.793-0.264-1.17-0.457
		C9.087,3.227,8.77,2.883,8.741,2.86c0,0,0.88-0.54,1.708-0.846c0.383,0.544,1.096,0.848,1.58,1.265
		c0.688,0.585,1.052,1.132,1.085,1.192c0.162-0.123,0.313-0.21,0.519-0.289c-0.274-0.601-0.666-1.293-1.138-1.73
		c-0.212-0.198-0.531-0.541-0.622-0.888c0,0,1.104-0.279,1.952-0.289l0.315,2.787c0.12-0.023,0.298-0.02,0.298-0.02
		s0.113-0.002,0.299,0.02l0.314-2.786c0,0,0.75,0.035,1.36,0.158c0.335,0.067,0.594,0.132,0.594,0.132
		c-0.097,0.344-0.407,0.694-0.618,0.888c-0.478,0.448-0.849,1.127-1.125,1.735c0.16,0.072,0.345,0.144,0.513,0.284
		c0.32-0.476,0.715-0.883,1.077-1.192c0.476-0.413,1.189-0.735,1.575-1.265c0.097,0.037,0.526,0.202,1.208,0.552l0.512,0.292
		c-0.016,0.015-0.585,0.477-0.866,0.636c-0.366,0.209-0.764,0.333-1.164,0.457C17.512,4.131,16.973,4.3,16.4,4.627L16.11,4.806
		c0.114,0.142,0.222,0.313,0.317,0.51c0.102-0.05,0.3-0.144,0.446-0.194c0.438-0.152,0.88-0.286,1.332-0.387
		c0.44-0.099,0.894-0.135,1.337-0.216c0.67-0.116,1.394-0.331,1.962-0.733c0.716,0.555,1.446,1.315,1.446,1.315
		c-0.399,0.218-1.169,0.474-2.423,0.362c0,0-2.081-0.287-3.929,0.294c0.057,0.173,0.078,0.294,0.121,0.562l0.365-0.057
		c0.656-0.095,1.73-0.133,3.494,0.187c0,0,1.954,0.466,3.474-0.04c0.151,0.195,0.296,0.397,0.435,0.601
		c0.653,0.944,1.199,1.96,1.646,3.015c0.47,1.114,0.825,2.273,1.072,3.453c0.254,1.248,0.39,2.518,0.405,3.791
		C27.626,18.646,27.5,20.026,27.233,21.383"/>
</g>
</svg>
